<svg width="75" height="104" viewBox="0 0 75 104" fill="none" xmlns="http://www.w3.org/2000/svg">
<path d="M36.464 59.888H26.608C25.1573 59.888 24.0053 59.3334 23.152 58.224C22.384 57.0294 22 55.4507 22 53.488C22 49.136 23.792 46.96 27.376 46.96H42.352C45.5093 46.96 47.728 46.064 49.008 44.272C50.288 42.48 50.928 40.5174 50.928 38.384V21.872C50.928 19.7387 50.288 17.776 49.008 15.984C47.728 14.192 45.5093 13.296 42.352 13.296H15.344V96.752C15.344 100.848 12.8267 102.896 7.79199 102.896C2.75732 102.896 0.23999 100.848 0.23999 96.752V8.04804C0.23999 4.97604 1.00799 2.92804 2.54399 1.90404C4.16532 0.880041 6.08532 0.368042 8.30399 0.368042H45.552C47.7707 0.368042 50.0747 0.837374 52.464 1.77604C54.8533 2.71471 57.1573 3.90938 59.376 5.36004H59.248C61.4667 6.98137 63.1733 9.11471 64.368 11.76C65.5627 14.32 66.16 17.3067 66.16 20.72V39.408C66.16 46.32 63.856 51.4827 59.248 54.896C58.3093 55.5787 57.2853 56.2187 56.176 56.816C55.152 57.4134 54.0853 58.0107 52.976 58.608L73.456 92.4C73.712 92.8267 73.968 93.3814 74.224 94.064C74.48 94.7467 74.608 95.3014 74.608 95.728C74.608 97.776 73.1573 99.7387 70.256 101.616V101.488C68.2933 102.683 66.6293 103.28 65.264 103.28C63.3013 103.28 61.7227 102.299 60.528 100.336L60.656 100.464L36.464 59.888Z" fill="white"/>
</svg> 